PathFileType	4	(X/Y/Z)	pose_F01_0-83.trc
DataRate	CameraRate	NumFrames	NumMarkers	Units	OrigDataRate	OrigDataStartFrame	OrigNumFrames
30	30	9	21	m	30	71	83
Frame#	Time	CHip			RHip			RKnee			RAnkle			RBigToe			RSmallToe			RHeel			LHip			LKnee			LAnkle			LBigToe			LSmallToe			LHeel			Neck			Nose			RShoulder			RElbow			RWrist			LShoulder			LElbow			LWrist			
		X1	Y1	Z1	X2	Y2	Z2	X3	Y3	Z3	X4	Y4	Z4	X5	Y5	Z5	X6	Y6	Z6	X7	Y7	Z7	X8	Y8	Z8	X9	Y9	Z9	X10	Y10	Z10	X11	Y11	Z11	X12	Y12	Z12	X13	Y13	Z13	X14	Y14	Z14	X15	Y15	Z15	X16	Y16	Z16	X17	Y17	Z17	X18	Y18	Z18	X19	Y19	Z19	X20	Y20	Z20	X21	Y21	Z21	
71	2.3666666666666667	-0.25396375429619866	1.8823194566982018	-0.4470292206313526	-0.26665745729938506	1.8779970449805454	-0.37852078548486157	-0.2884007685523096	1.7129334195219394	-0.4359641937044758													-0.23692977126794348	1.8834846993526895	-0.5058988753871013	-0.22938510289680736	1.740205882198636	-0.47643129057004674	-0.23380989033994876	1.6068111357714778	-0.5157818323576518	-0.25031409714528163	1.5668111389513177	-0.5573211407792096	-0.23225079115259778	1.5647959613958755	-0.5492707749947158	-0.23127605594508535	1.583858544954603	-0.5076967085998365	-0.2579608699543245	2.0503568917230885	-0.46413459378731836	-0.26297718812074333	2.1304610016907484	-0.5340224583671759	-0.2797303294449843	2.047551698513598	-0.3795079347516734	-0.28565694677880066	1.951921718309849	-0.3189602080381301	-0.29593271561024825	1.8732143951223	-0.26528918763537584	-0.23172923050363767	2.0532501713838953	-0.5429184687760036	-1.5720437687745885	1.8765944505262229	0.8942374750642487	-0.1943366129348404	1.9010928141591434	-0.6056513660583728
72	2.4	-0.2529191028978854	1.8857586693434065	-0.45293329461972975	-0.26598124609181584	1.8827386587507293	-0.3933115825898858	-0.2884007685523096	1.7129334195219394	-0.4359641937044758													-0.23700973027101918	1.8877119759728531	-0.506570304872898	-0.23119375505887918	1.7362970074696016	-0.4828324005762299	-0.23380989033994876	1.6068111357714778	-0.5157818323576518	-0.25031409714528163	1.5668111389513177	-0.5573211407792096	-0.23031767549886406	1.5654189698937184	-0.551531762836483	-0.23127605594508535	1.583858544954603	-0.5076967085998365	-0.25108349447645634	2.0505108443161455	-0.4674186029872715	-0.25595023501100644	2.131607480417559	-0.5370742377393056	-0.2757933062942226	2.0489853447198474	-0.38375549505459156	-0.2877499218326847	1.9576154869000841	-0.326616243876479	-0.3009033193705776	1.8743494573735102	-0.28767082663516896	-0.22692115919781405	2.0531914817248453	-0.5447280218766317	-1.3786436785181908	1.8883382852772388	0.6856049894641429	-0.19232273428457794	1.9042277753778314	-0.5951067406065809
73	2.433333333333333	-0.2553233090292171	1.8793308637493047	-0.4501598754121088	-0.2693311534125789	1.877246827059057	-0.3937981955660623	-0.2884007685523096	1.7129334195219394	-0.4359641937044758													-0.23846022668176473	1.8816389434480811	-0.5088615343555131	-0.23176975716911463	1.7353726440442694	-0.48510659533908673	-0.23380989033994876	1.6068111357714778	-0.5157818323576518	-0.25031409714528163	1.5668111389513177	-0.5573211407792096	-0.2307813363217378	1.5677325677258107	-0.5515266576371732	-0.23127605594508535	1.583858544954603	-0.5076967085998365	-0.2472022278617931	2.0490483488156714	-0.46342428350866804	-0.25002420037078493	2.127784001537641	-0.5343889117289028	-0.2701830972097778	2.0491017287258804	-0.38995190904809107	-0.2885226474242991	1.9588934200770238	-0.3439907058424742	-0.30148585437421777	1.8764303182271376	-0.3108367848429185	-0.22685102443541294	2.050857500884275	-0.5443026247248348	-1.1852435882617933	1.9000821200282547	0.47697250386403717	-0.1978644639096646	1.9022263257249676	-0.579497244838155
74	2.466666666666667	-0.2534168137217299	1.8790564618585908	-0.45227685812823354	-0.2693337824015828	1.8765591393413723	-0.3938489667871682	-0.2884007685523096	1.7129334195219394	-0.4359641937044758													-0.2335587024020097	1.8819999656925568	-0.5101914211864557	-0.23234575927935006	1.7344482806189374	-0.48738079010194363	-0.23380989033994876	1.6068111357714778	-0.5157818323576518	-0.25031409714528163	1.5668111389513177	-0.5573211407792096	-0.23065080344688343	1.5666311280962941	-0.5514572382547376	-0.23127605594508535	1.583858544954603	-0.5076967085998365	-0.24519631939228442	2.0490349655288678	-0.46550527421536886	-0.2449560763448967	2.122498760894056	-0.533173788197823	-0.2682218189626697	2.0477815084645226	-0.3914184818420351	-0.2800973777951735	1.9590728710354373	-0.3497031662883344	-0.2947379087065868	1.8718160263500008	-0.32767893944276716	-0.22087901939074805	2.0484774086493673	-0.5504132259084387	-0.9918434980053956	1.9118259547792706	0.2683400182639314	-0.2034061935347513	1.9002248760721037	-0.5638877490697293
75	2.5	-0.25201261806098	1.8797100338877109	-0.45476163667083275	-0.26882330035196433	1.876248255029587	-0.399225554515133	-0.2884007685523096	1.7129334195219394	-0.4359641937044758													-0.23493228780548828	1.883131030164818	-0.5135551621855879	-0.2329217613895855	1.7335239171936052	-0.48965498486480047	-0.23380989033994876	1.6068111357714778	-0.5157818323576518	-0.25031409714528163	1.5668111389513177	-0.5573211407792096	-0.22832480619851156	1.565887080165466	-0.553645418067128	-0.23127605594508535	1.583858544954603	-0.5076967085998365	-0.24417398191431153	2.047700211681058	-0.46256327176611156	-0.2432324452054794	2.11846967899502	-0.5348282261609874	-0.2672137481740211	2.047761149143936	-0.3890567060268901	-0.2748204680390579	1.9597704899644859	-0.3569441101730829	-0.28420404577802166	1.881658221189209	-0.3423722800681209	-0.2199876144567752	2.0482857937752468	-0.5480973428776367	-0.798443407748998	1.9235697895302868	0.05970753266382567	-0.2077795191430551	1.8951421078381339	-0.5684655296833656
76	2.533333333333333	-0.2519115117089265	1.8795728094015347	-0.45477293836510335	-0.2658155511795106	1.8791746917200527	-0.398491224751803	-0.2884007685523096	1.7129334195219394	-0.4359641937044758													-0.2329781088250854	1.882990683306936	-0.51576435588476	-0.2344887687434922	1.7387633832072622	-0.49273721746603627	-0.23380989033994876	1.6068111357714778	-0.5157818323576518	-0.25031409714528163	1.5668111389513177	-0.5573211407792096	-0.23297310165463692	1.5654110039723697	-0.5487837023477266	-0.23127605594508535	1.583858544954603	-0.5076967085998365	-0.2422785182060642	2.0477140372656355	-0.4645942664352798	-0.24439232392196808	2.11595904579903	-0.530198022962751	-0.26430086584097856	2.0462820061305877	-0.38744341099399326	-0.27217213355519104	1.9603670230371797	-0.3418005990678094	-0.2849490349341314	1.8814985513551004	-0.33706770857032337	-0.21807554229427006	2.0459081480766868	-0.5499049096338838	-0.6050433174926004	1.9353136242813027	-0.14892495293628005	-0.21215284475135884	1.8900593396041643	-0.5730433102970018
77	2.566666666666667	-0.25182686074733696	1.8841610446290158	-0.45568579548588634	-0.2657852885685292	1.8813217440456909	-0.3989591783459295	-0.2884007685523096	1.7129334195219394	-0.4359641937044758													-0.23292210479380054	1.8856024471732629	-0.5163212347373964	-0.23214293466237138	1.738412297989687	-0.49527352064587193	-0.23380989033994876	1.6068111357714778	-0.5157818323576518	-0.25031409714528163	1.5668111389513177	-0.5573211407792096	-0.22921996468205796	1.564982796382405	-0.5482414979483207	-0.23127605594508535	1.583858544954603	-0.5076967085998365	-0.24142812917014092	2.046465076792095	-0.46174724083007285	-0.24637129970815258	2.114856635863502	-0.5281593789975979	-0.2632864070707303	2.046214138051603	-0.38487884839035585	-0.27221241703103616	1.9604428912378586	-0.3416193377021019	-0.28826099443063957	1.8807267692547494	-0.32399441275961177	-0.22000897366442154	2.0469376441127496	-0.5477342846808295	-0.4116432272362027	1.9470574590323186	-0.3575574385363859	-0.21652617035966262	1.8849765713701945	-0.5776210909106382
78	2.6	-0.2535803022796882	1.874355408140801	-0.4516804313606218	-0.2690530363472868	1.8740282262839818	-0.38472521279053296	-0.2884007685523096	1.7129334195219394	-0.4359641937044758													-0.23464563953378312	1.8773245088637036	-0.5127987906337903	-0.23315581278539863	1.7372321286656716	-0.49404411359441747	-0.23380989033994876	1.6068111357714778	-0.5157818323576518	-0.25031409714528163	1.5668111389513177	-0.5573211407792096	-0.23051442499023458	1.5660767710547545	-0.5513084368922475	-0.23127605594508535	1.583858544954603	-0.5076967085998365	-0.24137326330152914	2.0475670456081607	-0.46159913937342023	-0.24835993243223992	2.1148287703399506	-0.5259548246790396	-0.2611758804021824	2.047146849302445	-0.3783625285341367	-0.2754858625162426	1.9614765023185805	-0.33693316165864196	-0.2931453552824704	1.8851801714690604	-0.31787705179236575	-0.2189933356004852	2.0445914896117947	-0.5523834660795647	-0.21824313697980519	1.9588012937833346	-0.5661899241364915	-0.211223795758754	1.8870711676501408	-0.5999967920947548
79	2.6333333333333333	-0.2537506183407767	1.8761596881679525	-0.4518521301399181	-0.2693593368472837	1.8747060663975226	-0.3847006527626315	-0.2884007685523096	1.7129334195219394	-0.4359641937044758													-0.23676507913883704	1.878936777901367	-0.5109069800327023	-0.23416869090842587	1.7360519593416563	-0.49281470654296305	-0.23380989033994876	1.6068111357714778	-0.5157818323576518	-0.25031409714528163	1.5668111389513177	-0.5573211407792096	-0.22934633764872012	1.5652490379325215	-0.5482007678007339	-0.23127605594508535	1.583858544954603	-0.5076967085998365	-0.24321370009383816	2.0475363758873546	-0.4594836462009055	-0.25030899668430373	2.115882510964561	-0.5235721982191368	-0.26176737868844024	2.0481202466080157	-0.37310829274180524	-0.2772219898995166	1.9585973303046147	-0.33378195392554	-0.29734589913209203	1.884865705943747	-0.3222160933368793	-0.22094303631151815	2.045698062141299	-0.5500949837001166	-1.5663466268406085	1.8741179944141533	0.8879141180738694	-0.21060674665196513	1.890626633926594	-0.6093380548123059
